<svg width="12" height="13" viewBox="0 0 12 13" fill="none" xmlns="http://www.w3.org/2000/svg">
<path d="M5.39366 1.96326C5.05893 1.62853 5.05893 1.08582 5.39366 0.751082C5.7284 0.416347 6.27111 0.416347 6.60585 0.751082L11.7487 5.89394C12.0732 6.21843 12.0846 6.74094 11.7745 7.07922L7.06017 12.2221C6.74029 12.571 6.19809 12.5946 5.84913 12.2747C5.50017 11.9549 5.4766 11.4126 5.79648 11.0637L9.95621 6.52581L5.39366 1.96326Z" fill="#A0A0A0"/>
<path d="M1.23595 1.96326C0.901213 1.62853 0.901213 1.08582 1.23595 0.751082C1.57068 0.416347 2.1134 0.416347 2.44813 0.751082L7.59099 5.89394C7.91548 6.21843 7.92684 6.74094 7.61674 7.07922L2.90246 12.2221C2.58258 12.571 2.04038 12.5946 1.69142 12.2747C1.34246 11.9549 1.31889 11.4126 1.63876 11.0637L5.79849 6.52581L1.23595 1.96326Z" fill="#A0A0A0"/>
</svg>
