<?xml version="1.0" standalone="no"?>
<!DOCTYPE svg PUBLIC "-//W3C//DTD SVG 20010904//EN"
 "http://www.w3.org/TR/2001/REC-SVG-20010904/DTD/svg10.dtd">
<svg version="1.0" xmlns="http://www.w3.org/2000/svg"
 width="1024.000000pt" height="1024.000000pt" viewBox="0 0 1024.000000 1024.000000"
 preserveAspectRatio="xMidYMid meet">

<g transform="translate(0.000000,1024.000000) scale(0.100000,-0.100000)"
fill="#000000" stroke="none">
<path d="M1982 8926 c-13 -7 -32 -26 -43 -42 -19 -29 -19 -89 -19 -3774 0
-2952 3 -3750 13 -3769 6 -13 25 -34 40 -45 l28 -21 1737 -3 c1168 -2 1749 0
1773 7 73 22 109 103 75 169 -34 67 96 62 -1751 62 l-1675 0 0 3595 0 3595
2960 0 2960 0 2 -2367 c3 -2244 4 -2369 21 -2394 47 -69 164 -63 202 11 13 26
15 307 15 2465 0 2279 -1 2439 -17 2466 -38 64 227 59 -3190 59 -2508 -1
-3112 -3 -3131 -14z"/>
<path d="M3114 7507 c-48 -23 -74 -63 -74 -114 0 -38 5 -50 34 -79 l34 -34
1541 0 c1142 0 1547 3 1565 12 52 23 76 94 52 151 -30 73 107 67 -1592 73
-1313 4 -1533 3 -1560 -9z"/>
<path d="M3092 6350 c-75 -46 -69 -166 12 -204 32 -15 179 -16 1813 -14 1680
3 1779 4 1804 21 48 32 63 101 34 157 -33 64 102 60 -1852 60 -1759 0 -1778 0
-1811 -20z"/>
<path d="M3123 5224 c-12 -3 -36 -21 -53 -40 -24 -28 -30 -44 -30 -80 0 -39 5
-51 34 -80 l34 -34 2017 2 2017 3 29 33 c49 55 33 153 -29 181 -17 8 -580 13
-2011 16 -1092 2 -1996 2 -2008 -1z"/>
<path d="M6025 3530 c-11 -4 -31 -20 -45 -35 l-25 -27 0 -1065 0 -1065 37 -34
38 -34 1105 0 c1226 0 1152 -4 1181 65 12 29 14 144 14 675 0 691 1 677 -52
714 -29 20 -90 20 -129 0 -59 -30 -59 -29 -59 -649 l0 -565 -950 0 -950 0 0
895 0 895 650 0 c699 0 698 0 734 51 20 30 21 108 0 137 -37 53 -15 52 -801
51 -400 0 -737 -4 -748 -9z"/>
<path d="M8028 3315 c-21 -12 -955 -1077 -990 -1129 -5 -7 -102 83 -241 222
-213 213 -237 234 -274 239 -97 13 -165 -87 -119 -175 8 -15 140 -151 293
-304 307 -305 314 -310 388 -272 39 21 1090 1229 1107 1274 36 94 -77 194
-164 145z"/>
</g>
</svg>
